HIERARCHY
ROOT Hips
{
    OFFSET 0.000000 0.000000 0.000000
    CHANNELS 6 Xposition Yposition Zposition Zrotation Xrotation Yrotation
        JOINT Chest
        {
            OFFSET -0.000000 28.502190 -0.000000
            CHANNELS 3 Zrotation Xrotation Yrotation
            JOINT Neck
            {
                OFFSET -0.000000 21.060717 0.000000
                CHANNELS 3 Zrotation Xrotation Yrotation
                JOINT Head
                {
                    OFFSET -0.000000 9.900002 0.000000
                    CHANNELS 3 Zrotation Xrotation Yrotation
                    End Site
                    {
                        OFFSET -0.000000 15.300010 0.000000
                    }
                }
            }
            JOINT LeftCollar
            {
                OFFSET -0.000000 21.060717 0.000000
                CHANNELS 3 Zrotation Xrotation Yrotation
                JOINT LeftShoulder
                {
                    OFFSET 18.000004 -0.000000 0.000000
                    CHANNELS 3 Zrotation Xrotation Yrotation
                    JOINT LeftElbow
                    {
                        OFFSET 21.585543 0.000000 0.000000
                        CHANNELS 3 Zrotation Xrotation Yrotation
                        JOINT LeftWrist
                        {
                            OFFSET 21.310946 0.000000 0.000000
                            CHANNELS 3 Zrotation Xrotation Yrotation
                            End Site
                            {
                                OFFSET 0.000000 -13.500002 0.000000
                            }
                        }
                    }
                }
            }
            JOINT RightCollar
            {
                OFFSET -0.000000 21.060717 0.000000
                CHANNELS 3 Zrotation Xrotation Yrotation
                JOINT RightShoulder
                {
                    OFFSET -18.000004 0.000000 0.000000
                    CHANNELS 3 Zrotation Xrotation Yrotation
                    JOINT RightElbow
                    {
                        OFFSET -21.585543 0.000000 0.000000
                        CHANNELS 3 Zrotation Xrotation Yrotation
                        JOINT RightWrist
                        {
                            OFFSET -21.310946 0.000000 0.000000
                            CHANNELS 3 Zrotation Xrotation Yrotation
                            End Site
                            {
                                OFFSET -0.000000 -13.500002 0.000000
                            }
                        }
                    }
                }
            }
        }
    JOINT LeftHip
    {
        OFFSET 10.800001 0.000000 0.000000
        CHANNELS 3 Zrotation Xrotation Yrotation
        JOINT LeftKnee
        {
            OFFSET -0.000000 -36.918850 0.000000
            CHANNELS 3 Zrotation Xrotation Yrotation
            JOINT LeftAnkle
            {
                OFFSET -0.000000 -34.060452 0.000000
                CHANNELS 3 Zrotation Xrotation Yrotation
                End Site
                {
                    OFFSET -0.000000 -4.500001 15.300010
                }
            }
        }
    }
    JOINT RightHip
    {
        OFFSET -10.800001 0.000000 0.000000
        CHANNELS 3 Zrotation Xrotation Yrotation
        JOINT RightKnee
        {
            OFFSET -0.000000 -36.918850 0.000000
            CHANNELS 3 Zrotation Xrotation Yrotation
            JOINT RightAnkle
            {
                OFFSET -0.000000 -34.060452 0.000000
                CHANNELS 3 Zrotation Xrotation Yrotation
                End Site
                {
                    OFFSET -0.000000 -4.500001 15.300010
                }
            }
        }
    }
}
MOTION
Frames:    16
Frame Time:    0.010000
-70.734909    79.024712    -65.330002    1.421428    3.176922    44.013336    -4.171149    4.272236    -0.146019    4.777901    7.767240    -6.013754    -1.945118    -14.745778    -6.190383    -19.060442    -0.286698    1.825392    -55.103622    23.948915    -6.860476    29.895771    -16.829836    -58.037937    103.999245    -5.249765    68.643143    10.732119    -1.684476    -17.499519    0.244126    60.684013    74.192268    -6.373493    -3.507943    57.621548    -115.174553    -20.978649    -32.141136    -7.757485    2.318898    -2.361506    1.125172    6.172222    19.355103    2.195425    -9.217321    2.339480    -8.015468    -15.232253    -0.681384    -11.121790    27.457699    3.992856    6.375131    -14.671965    7.199665    
-70.694908    79.039230    -64.968094    1.815856    2.491454    43.812290    -4.365329    4.826312    0.262820    3.954683    7.599797    -6.109194    -1.056425    -13.128464    -5.973607    -18.719160    -0.309631    1.984093    -55.164070    24.338089    -6.779925    30.205633    -17.038729    -57.686455    104.078224    -5.527336    68.809570    11.154714    -1.730199    -16.991861    0.305727    60.838589    73.827042    -6.269134    -3.440937    57.875378    -114.212898    -20.128443    -32.024136    -7.388583    3.210004    -0.917404    1.203404    6.319556    18.346861    1.504039    -9.414185    2.278356    -7.501349    -14.263770    -0.104711    -11.086685    27.471218    3.777742    5.172200    -14.841957    6.934551    
-70.766083    79.007652    -64.861969    1.443670    2.953118    43.896038    -4.215478    4.266105    0.110561    4.367932    7.597066    -6.177934    -1.954290    -13.469934    -6.119269    -18.937916    -0.316707    1.721262    -55.163239    24.194183    -6.610000    30.109928    -16.930470    -57.931126    104.161163    -5.191247    68.813530    10.930799    -1.690320    -17.351255    0.995243    60.719135    73.299911    -6.108902    -3.320740    57.740147    -114.912941    -20.707537    -32.082928    -7.338755    2.560412    -1.774030    1.105676    6.457071    18.868086    1.791392    -9.461061    2.482581    -7.515894    -14.934193    -0.391567    -11.095739    27.689821    4.073223    4.988363    -15.003155    6.740740    
-70.785736    79.009331    -64.704086    1.429084    2.914481    43.867298    -4.210202    4.224271    0.155863    4.270589    7.613523    -6.141992    -1.814016    -13.302360    -6.068292    -18.935226    -0.288635    1.794931    -55.157040    24.197443    -6.577199    30.134861    -16.931273    -57.910595    104.173599    -5.163533    68.806046    10.959383    -1.699204    -17.192471    1.252990    60.774570    72.991417    -5.977840    -3.246986    57.777702    -114.830444    -20.729412    -31.990252    -7.198358    2.587481    -1.645588    1.086723    6.583485    18.715467    1.657171    -9.559202    2.580395    -7.359307    -14.874285    -0.330688    -11.094346    27.768473    4.126751    4.626599    -15.117193    6.588183    
-70.806641    79.013535    -64.524437    1.417095    2.870459    43.834370    -4.184779    4.193692    0.196742    4.182662    7.631961    -6.111802    -1.702188    -13.155594    -6.028317    -18.938517    -0.288740    1.852009    -55.167660    24.241714    -6.533875    30.208162    -16.978573    -57.890816    104.204369    -5.089265    68.825912    10.983809    -1.686028    -17.069046    1.515208    60.797493    72.686790    -5.851758    -3.180984    57.800159    -114.752716    -20.784573    -31.886679    -7.041402    2.615311    -1.496247    1.063902    6.743413    18.535389    1.493239    -9.683091    2.695071    -7.185727    -14.797493    -0.260464    -11.091877    27.846586    4.184958    4.259983    -15.232576    6.422789    
-70.826965    79.019691    -64.324608    1.410092    2.820250    43.797245    -4.147811    4.181756    0.233766    4.114071    7.546769    -6.187643    -1.634583    -12.976692    -6.104147    -18.930099    -0.316466    1.732530    -55.227741    24.371651    -6.462653    30.276909    -17.030668    -57.868671    104.249100    -4.994953    68.838860    10.994179    -1.659948    -17.222717    1.709850    60.728119    72.486076    -5.744375    -3.122082    57.804344    -114.677002    -20.862669    -31.784451    -6.873103    2.652902    -1.329458    1.042583    6.922526    18.340155    1.293193    -9.826025    2.816350    -6.998005    -14.700906    -0.178858    -11.087859    27.920614    4.249350    3.901606    -15.343356    6.243400    
-70.845703    79.027031    -64.107124    1.408233    2.765728    43.758102    -4.115353    4.146269    0.266885    4.076926    7.659771    -6.107103    -1.632949    -12.931808    -6.016932    -18.949829    -0.277498    1.843922    -55.243683    24.342031    -6.428073    30.279982    -16.998177    -57.831886    104.296066    -4.924929    68.816635    11.013915    -1.636753    -17.029623    1.992684    60.763348    72.162582    -5.637382    -3.075558    57.793697    -114.630569    -20.950117    -31.683599    -6.699224    2.707905    -1.156335    1.028538    7.100877    18.145718    1.051736    -9.976648    2.934195    -6.800314    -14.586194    -0.087187    -11.082223    27.989563    4.323071    3.560664    -15.446587    6.048711    
-70.862541    79.034874    -63.874763    1.410555    2.709305    43.720264    -4.082397    4.133062    0.294544    4.078230    7.652216    -6.151100    -1.659024    -12.860910    -6.066298    -18.940908    -0.316803    1.742065    -55.324764    24.455982    -6.350304    30.386189    -17.085262    -57.809086    104.289314    -4.858358    68.813599    11.009740    -1.671317    -17.156607    2.184311    60.763477    71.988953    -5.626186    -3.110276    57.723064    -114.483368    -21.073994    -31.579071    -6.524237    2.785314    -0.990801    1.025563    7.260592    17.968136    0.768791    -10.123242    3.040279    -6.596443    -14.456570    0.012123    -11.075673    28.054159    4.409398    3.242212    -15.542250    5.837899    
-70.877571    79.042747    -63.629944    1.416149    2.651166    43.686295    -4.067122    4.100345    0.314570    4.117603    7.811502    -6.061512    -1.742331    -12.900860    -5.974627    -18.943407    -0.288891    1.831259    -55.370136    24.392252    -6.291199    30.385891    -17.032328    -57.771519    104.312729    -4.831906    68.778328    11.044912    -1.652847    -16.984062    2.439807    60.799923    71.677902    -5.453933    -2.960717    57.746021    -114.584923    -21.103674    -31.529415    -6.349162    2.886891    -0.840287    1.034176    7.393123    17.817747    0.450740    -10.257754    3.127257    -6.387638    -14.313485    0.119307    -11.069321    28.115345    4.507351    2.949193    -15.631413    5.613467    
-70.891121    79.050560    -63.374859    1.423840    2.590641    43.657337    -4.060924    4.088465    0.325264    4.192635    7.878146    -6.061580    -1.832324    -12.918030    -5.979724    -18.913593    -0.287954    1.768497    -55.449799    24.398483    -6.224086    30.433966    -17.052759    -57.750202    104.312088    -4.822293    68.743279    11.071691    -1.690292    -17.037003    2.605745    60.821129    71.525841    -5.434241    -2.993734    57.664429    -114.471817    -21.212025    -31.438259    -6.172300    3.006601    -0.705991    1.050998    7.506107    17.697407    0.108556    -10.380257    3.191665    -6.173106    -14.158090    0.239059    -11.063661    28.174665    4.610106    2.683508    -15.715622    5.379437    
-70.903671    79.058418    -63.110851    1.432100    2.526995    43.633183    -4.069942    4.071270    0.326801    4.285319    7.989911    -6.022455    -1.941611    -12.963452    -5.941833    -18.873627    -0.306513    1.765004    -55.532047    24.373829    -6.137164    30.460112    -17.055302    -57.731686    104.327927    -4.830463    68.694771    11.133992    -1.667978    -17.003187    2.760795    60.809879    71.337746    -5.260964    -2.848453    57.675041    -114.585716    -21.230228    -31.399065    -5.989852    3.132691    -0.585231    1.069799    7.618861    17.605059    -0.245169    -10.496414    3.233672    -5.949864    -13.991621    0.380400    -11.058931    28.234028    4.703482    2.447477    -15.795794    5.142434    
-70.915749    79.066650    -62.838089    1.438865    2.460871    43.612823    -4.083890    4.057324    0.320769    4.381658    8.045454    -6.028501    -2.038926    -12.978801    -5.951877    -18.816490    -0.276797    1.696711    -55.615845    24.329205    -6.076529    30.389269    -17.012224    -57.716919    104.407486    -4.841794    68.599510    11.177664    -1.717195    -17.079811    2.854159    60.835392    71.276955    -5.299815    -2.909641    57.564598    -114.409279    -21.338116    -31.321743    -5.798920    3.255756    -0.480112    1.085737    7.745018    17.543295    -0.599191    -10.609283    3.254635    -5.713399    -13.816836    0.554110    -11.056382    28.296206    4.768765    2.245186    -15.871255    4.911437    
-70.927826    79.075584    -62.556034    1.442277    2.393364    43.594463    -4.092507    4.021716    0.309144    4.449897    8.216607    -5.915584    -2.122893    -13.040622    -5.834508    -18.772427    -0.309722    1.828663    -55.690796    24.277571    -5.993876    30.408607    -17.041494    -57.709049    104.431641    -4.868607    68.507317    11.245942    -1.696667    -16.879059    2.993450    60.879128    71.096230    -5.134099    -2.771495    57.571239    -114.526184    -21.331732    -31.294361    -5.598771    3.374006    -0.396030    1.097458    7.884353    17.521225    -0.946656    -10.715949    3.254263    -5.459094    -13.637159    0.767740    -11.058205    28.364365    4.790773    2.081201    -15.939592    4.694532    
-70.940247    79.085457    -62.264599    1.440535    2.325998    43.575264    -4.080834    3.999874    0.293884    4.504287    8.201012    -5.956083    -2.176454    -12.988708    -5.881393    -18.707520    -0.307706    1.728254    -55.803841    24.281349    -5.908033    30.334082    -16.992874    -57.698463    104.549965    -4.859797    68.397743    11.287810    -1.688749    -17.043406    3.012823    60.832352    71.112793    -5.086752    -2.787434    57.504242    -114.409271    -21.387035    -31.204487    -5.390404    3.489433    -0.337710    1.105157    8.028677    17.548489    -1.288480    -10.810235    3.233682    -5.184688    -13.457353    1.022809    -11.064736    28.441401    4.761764    1.956371    -15.996377    4.497033    
-70.953186    79.096329    -61.964817    1.431898    2.260041    43.551670    -4.050150    3.943610    0.275040    4.503303    8.308520    -5.851267    -2.227426    -12.965117    -5.774032    -18.674881    -0.326473    1.868683    -55.893616    24.228912    -5.823355    30.294086    -16.984735    -57.701027    104.647949    -4.839007    68.282288    11.317158    -1.677015    -16.883608    3.079021    60.881359    71.045784    -5.026760    -2.775730    57.456738    -114.314026    -21.399006    -31.132195    -5.176369    3.604927    -0.305176    1.110822    8.167578    17.631252    -1.632148    -10.886015    3.195238    -4.890910    -13.282804    1.313577    -11.074387    28.529257    4.684480    1.865673    -16.037233    4.320237    
-70.967018    79.108032    -61.659008    1.414677    2.197203    43.520832    -3.990761    3.893024    0.252647    4.484440    8.240063    -5.884527    -2.249965    -12.831286    -5.815066    -18.633451    -0.297158    1.793909    -56.015064    24.209778    -5.745660    30.205612    -16.914972    -57.707085    104.768631    -4.802722    68.152817    11.304846    -1.709083    -17.061131    3.014017    60.883331    71.164734    -5.106860    -2.810923    57.369576    -114.077522    -21.398926    -31.098953    -4.962317    3.722979    -0.295960    1.121567    8.289592    17.769629    -1.986216    -10.936674    3.143287    -4.581043    -13.119916    1.627832    -11.085943    28.628742    4.570136    1.799502    -16.059412    4.163407    
